pokemon-font.ufo
<glyph name="exclam" format="1">
  <advance width="320"/>
  <unicode hex="0021"/>
  <note>
    exclam
  </note>
  <outline>
    <contour>
      <point x="200" y="120" type="line"/>
      <point x="200" y="160" type="line"/>
      <point x="240" y="160" type="line"/>
      <point x="240" y="280" type="line"/>
      <point x="200" y="280" type="line"/>
      <point x="200" y="320" type="line"/>
      <point x="120" y="320" type="line"/>
      <point x="120" y="280" type="line"/>
      <point x="80" y="280" type="line"/>
      <point x="80" y="160" type="line"/>
      <point x="120" y="160" type="line"/>
      <point x="120" y="120" type="line"/>
    </contour>
    <contour>
      <point x="200" y="0" type="line"/>
      <point x="200" y="80" type="line"/>
      <point x="120" y="80" type="line"/>
      <point x="120" y="0" type="line"/>
    </contour>
  </outline>
</glyph>
<glyph name="quotedbl" format="1">
  <advance width="320"/>
  <unicode hex="0022"/>
  <note>
    quotesingle
  </note>
  <outline>
    <contour>
      <point x="200" y="200" type="line"/>
      <point x="200" y="320" type="line"/>
      <point x="160" y="320" type="line"/>
      <point x="160" y="200" type="line"/>
    </contour>
    <contour>
      <point x="120" y="200" type="line"/>
      <point x="120" y="320" type="line"/>
      <point x="80" y="320" type="line"/>
      <point x="80" y="200" type="line"/>
    </contour>
  </outline>
</glyph>
<glyph name="quotesingle" format="1">
  <advance width="320"/>
  <unicode hex="0027"/>
  <note>
    quotesingle
  </note>
  <outline>
    <contour>
      <point x="160" y="200" type="line"/>
      <point x="160" y="320" type="line"/>
      <point x="120" y="320" type="line"/>
      <point x="120" y="200" type="line"/>
    </contour>
  </outline>
</glyph>
<glyph name="parenleft" format="1">
  <advance width="320"/>
  <unicode hex="0028"/>
  <note>
    parenleft
  </note>
  <outline>
    <contour>
      <point x="120" y="80" type="line"/>
      <point x="120" y="200" type="line"/>
      <point x="80" y="200" type="line"/>
      <point x="80" y="80" type="line"/>
    </contour>
    <contour>
      <point x="160" y="40" type="line"/>
      <point x="160" y="80" type="line"/>
      <point x="120" y="80" type="line"/>
      <point x="120" y="40" type="line"/>
    </contour>
    <contour>
      <point x="240" y="0" type="line"/>
      <point x="240" y="40" type="line"/>
      <point x="160" y="40" type="line"/>
      <point x="160" y="0" type="line"/>
    </contour>
    <contour>
      <point x="160" y="200" type="line"/>
      <point x="160" y="240" type="line"/>
      <point x="120" y="240" type="line"/>
      <point x="120" y="200" type="line"/>
    </contour>
    <contour>
      <point x="240" y="240" type="line"/>
      <point x="240" y="280" type="line"/>
      <point x="160" y="280" type="line"/>
      <point x="160" y="240" type="line"/>
    </contour>
  </outline>
</glyph>
<glyph name="comma" format="1">
  <advance width="320"/>
  <unicode hex="002C"/>
  <note>
    comma
  </note>
  <outline>
    <contour>
      <point x="200" y="0" type="line"/>
      <point x="200" y="120" type="line"/>
      <point x="120" y="120" type="line"/>
      <point x="120" y="40" type="line"/>
      <point x="160" y="40" type="line"/>
      <point x="160" y="0" type="line"/>
    </contour>
    <contour>
      <point x="160" y="-40" type="line"/>
      <point x="160" y="0" type="line"/>
      <point x="120" y="0" type="line"/>
      <point x="120" y="-40" type="line"/>
    </contour>
  </outline>
</glyph>
<glyph name="hyphen" format="1">
  <advance width="320"/>
  <unicode hex="002D"/>
  <note>
    hyphen
  </note>
  <outline>
    <contour>
      <point x="240" y="80" type="line"/>
      <point x="240" y="120" type="line"/>
      <point x="80" y="120" type="line"/>
      <point x="80" y="80" type="line"/>
    </contour>
  </outline>
</glyph>
<glyph name="seven" format="1">
  <advance width="320"/>
  <unicode hex="0037"/>
  <note>
    seven
  </note>
  <outline>
    <contour>
      <point x="160" y="0" type="line"/>
      <point x="160" y="80" type="line"/>
      <point x="200" y="80" type="line"/>
      <point x="200" y="120" type="line"/>
      <point x="240" y="120" type="line"/>
      <point x="240" y="160" type="line"/>
      <point x="280" y="160" type="line"/>
      <point x="280" y="240" type="line"/>
      <point x="0" y="240" type="line"/>
      <point x="0" y="160" type="line"/>
      <point x="80" y="160" type="line"/>
      <point x="80" y="200" type="line"/>
      <point x="200" y="200" type="line"/>
      <point x="200" y="160" type="line"/>
      <point x="160" y="160" type="line"/>
      <point x="160" y="120" type="line"/>
      <point x="120" y="120" type="line"/>
      <point x="120" y="80" type="line"/>
      <point x="80" y="80" type="line"/>
      <point x="80" y="0" type="line"/>
    </contour>
  </outline>
</glyph>
<glyph name="E" format="1">
  <advance width="320"/>
  <unicode hex="0045"/>
  <note>
    E
  </note>
  <outline>
    <contour>
      <point x="280" y="0" type="line"/>
      <point x="280" y="40" type="line"/>
      <point x="40" y="40" type="line"/>
      <point x="40" y="120" type="line"/>
      <point x="240" y="120" type="line"/>
      <point x="240" y="160" type="line"/>
      <point x="40" y="160" type="line"/>
      <point x="40" y="240" type="line"/>
      <point x="280" y="240" type="line"/>
      <point x="280" y="280" type="line"/>
      <point x="0" y="280" type="line"/>
      <point x="0" y="0" type="line"/>
    </contour>
  </outline>
</glyph>
<glyph name="T" format="1">
  <advance width="320"/>
  <unicode hex="0054"/>
  <note>
    T
  </note>
  <outline>
    <contour>
      <point x="160" y="0" type="line"/>
      <point x="160" y="240" type="line"/>
      <point x="280" y="240" type="line"/>
      <point x="280" y="280" type="line"/>
      <point x="0" y="280" type="line"/>
      <point x="0" y="240" type="line"/>
      <point x="120" y="240" type="line"/>
      <point x="120" y="0" type="line"/>
    </contour>
  </outline>
</glyph>
<glyph name="bracketleft" format="1">
  <advance width="320"/>
  <unicode hex="005B"/>
  <note>
    bracketleft
  </note>
  <outline>
    <contour>
      <point x="200" y="0" type="line"/>
      <point x="200" y="40" type="line"/>
      <point x="120" y="40" type="line"/>
      <point x="120" y="240" type="line"/>
      <point x="200" y="240" type="line"/>
      <point x="200" y="280" type="line"/>
      <point x="80" y="280" type="line"/>
      <point x="80" y="0" type="line"/>
    </contour>
  </outline>
</glyph>
<glyph name="asciicircum" format="1">
  <advance width="320"/>
  <unicode hex="005E"/>
  <outline>
    <contour>
      <point x="200" y="322" type="line"/>
      <point x="200" y="362" type="line"/>
      <point x="160" y="362" type="line"/>
      <point x="160" y="322" type="line"/>
    </contour>
    <contour>
      <point x="80" y="282" type="line"/>
      <point x="80" y="322" type="line"/>
      <point x="40" y="322" type="line"/>
      <point x="40" y="282" type="line"/>
    </contour>
    <contour>
      <point x="120" y="322" type="line"/>
      <point x="120" y="362" type="line"/>
      <point x="80" y="362" type="line"/>
      <point x="80" y="322" type="line"/>
    </contour>
    <contour>
      <point x="160" y="362" type="line"/>
      <point x="160" y="402" type="line"/>
      <point x="120" y="402" type="line"/>
      <point x="120" y="362" type="line"/>
    </contour>
    <contour>
      <point x="240" y="282" type="line"/>
      <point x="240" y="322" type="line"/>
      <point x="200" y="322" type="line"/>
      <point x="200" y="282" type="line"/>
    </contour>
  </outline>
</glyph>
<glyph name="underscore" format="1">
  <advance width="320"/>
  <unicode hex="005F"/>
  <note>
    hyphen
  </note>
  <outline>
    <contour>
      <point x="280" y="-40" type="line"/>
      <point x="280" y="0" type="line"/>
      <point x="0" y="0" type="line"/>
      <point x="0" y="-40" type="line"/>
    </contour>
  </outline>
</glyph>
<glyph name="g" format="1">
  <advance width="320"/>
  <unicode hex="0067"/>
  <note>
    g
  </note>
  <outline>
    <contour>
      <point x="240" y="0" type="line"/>
      <point x="240" y="200" type="line"/>
      <point x="40" y="200" type="line"/>
      <point x="40" y="160" type="line"/>
      <point x="200" y="160" type="line"/>
      <point x="200" y="80" type="line"/>
      <point x="40" y="80" type="line"/>
      <point x="40" y="40" type="line"/>
      <point x="200" y="40" type="line"/>
      <point x="200" y="0" type="line"/>
    </contour>
    <contour>
      <point x="200" y="-40" type="line"/>
      <point x="200" y="0" type="line"/>
      <point x="0" y="0" type="line"/>
      <point x="0" y="-40" type="line"/>
    </contour>
    <contour>
      <point x="40" y="80" type="line"/>
      <point x="40" y="160" type="line"/>
      <point x="0" y="160" type="line"/>
      <point x="0" y="80" type="line"/>
    </contour>
  </outline>
</glyph>
<glyph name="h" format="1">
  <advance width="320"/>
  <unicode hex="0068"/>
  <note>
    h
  </note>
  <outline>
    <contour>
      <point x="40" y="0" type="line"/>
      <point x="40" y="120" type="line"/>
      <point x="160" y="120" type="line"/>
      <point x="160" y="160" type="line"/>
      <point x="40" y="160" type="line"/>
      <point x="40" y="280" type="line"/>
      <point x="0" y="280" type="line"/>
      <point x="0" y="0" type="line"/>
    </contour>
    <contour>
      <point x="200" y="0" type="line"/>
      <point x="200" y="120" type="line"/>
      <point x="160" y="120" type="line"/>
      <point x="160" y="0" type="line"/>
    </contour>
  </outline>
</glyph>
<glyph name="i" format="1">
  <advance width="320"/>
  <unicode hex="0069"/>
  <note>
    i
  </note>
  <outline>
    <contour>
      <point x="160" y="0" type="line"/>
      <point x="160" y="160" type="line"/>
      <point x="120" y="160" type="line"/>
      <point x="120" y="0" type="line"/>
    </contour>
    <contour>
      <point x="160" y="200" type="line"/>
      <point x="160" y="240" type="line"/>
      <point x="120" y="240" type="line"/>
      <point x="120" y="200" type="line"/>
    </contour>
  </outline>
</glyph>
<glyph name="l" format="1">
  <advance width="320"/>
  <unicode hex="006C"/>
  <note>
    l
  </note>
  <outline>
    <contour>
      <point x="160" y="0" type="line"/>
      <point x="160" y="280" type="line"/>
      <point x="120" y="280" type="line"/>
      <point x="120" y="0" type="line"/>
    </contour>
  </outline>
</glyph>
<glyph name="m" format="1">
  <advance width="320"/>
  <unicode hex="006D"/>
  <note>
    m
  </note>
  <outline>
    <contour>
      <point x="40" y="0" type="line"/>
      <point x="40" y="160" type="line"/>
      <point x="120" y="160" type="line"/>
      <point x="120" y="200" type="line"/>
      <point x="0" y="200" type="line"/>
      <point x="0" y="0" type="line"/>
    </contour>
    <contour>
      <point x="160" y="0" type="line"/>
      <point x="160" y="160" type="line"/>
      <point x="120" y="160" type="line"/>
      <point x="120" y="0" type="line"/>
    </contour>
    <contour>
      <point x="280" y="0" type="line"/>
      <point x="280" y="160" type="line"/>
      <point x="240" y="160" type="line"/>
      <point x="240" y="0" type="line"/>
    </contour>
    <contour>
      <point x="240" y="160" type="line"/>
      <point x="240" y="200" type="line"/>
      <point x="160" y="200" type="line"/>
      <point x="160" y="160" type="line"/>
    </contour>
  </outline>
</glyph>
<glyph name="p" format="1">
  <advance width="320"/>
  <unicode hex="0070"/>
  <note>
    p
  </note>
  <outline>
    <contour>
      <point x="40" y="-40" type="line"/>
      <point x="40" y="40" type="line"/>
      <point x="200" y="40" type="line"/>
      <point x="200" y="80" type="line"/>
      <point x="40" y="80" type="line"/>
      <point x="40" y="160" type="line"/>
      <point x="200" y="160" type="line"/>
      <point x="200" y="200" type="line"/>
      <point x="0" y="200" type="line"/>
      <point x="0" y="-40" type="line"/>
    </contour>
    <contour>
      <point x="240" y="80" type="line"/>
      <point x="240" y="160" type="line"/>
      <point x="200" y="160" type="line"/>
      <point x="200" y="80" type="line"/>
    </contour>
  </outline>
</glyph>
<glyph name="y" format="1">
  <advance width="320"/>
  <unicode hex="0079"/>
  <note>
    y
  </note>
  <outline>
    <contour>
      <point x="200" y="0" type="line"/>
      <point x="200" y="200" type="line"/>
      <point x="160" y="200" type="line"/>
      <point x="160" y="80" type="line"/>
      <point x="40" y="80" type="line"/>
      <point x="40" y="40" type="line"/>
      <point x="160" y="40" type="line"/>
      <point x="160" y="0" type="line"/>
    </contour>
    <contour>
      <point x="160" y="-40" type="line"/>
      <point x="160" y="0" type="line"/>
      <point x="0" y="0" type="line"/>
      <point x="0" y="-40" type="line"/>
    </contour>
    <contour>
      <point x="40" y="80" type="line"/>
      <point x="40" y="200" type="line"/>
      <point x="0" y="200" type="line"/>
      <point x="0" y="80" type="line"/>
    </contour>
  </outline>
</glyph>
<glyph name="z" format="1">
  <advance width="320"/>
  <unicode hex="007A"/>
  <note>
    z
  </note>
  <outline>
    <contour>
      <point x="200" y="120" type="line"/>
      <point x="200" y="160" type="line"/>
      <point x="240" y="160" type="line"/>
      <point x="240" y="200" type="line"/>
      <point x="0" y="200" type="line"/>
      <point x="0" y="160" type="line"/>
      <point x="160" y="160" type="line"/>
      <point x="160" y="120" type="line"/>
    </contour>
    <contour>
      <point x="240" y="0" type="line"/>
      <point x="240" y="40" type="line"/>
      <point x="80" y="40" type="line"/>
      <point x="80" y="80" type="line"/>
      <point x="40" y="80" type="line"/>
      <point x="40" y="40" type="line"/>
      <point x="0" y="40" type="line"/>
      <point x="0" y="0" type="line"/>
    </contour>
    <contour>
      <point x="160" y="80" type="line"/>
      <point x="160" y="120" type="line"/>
      <point x="80" y="120" type="line"/>
      <point x="80" y="80" type="line"/>
    </contour>
  </outline>
</glyph>
<glyph name="brokenbar" format="1">
  <advance width="320"/>
  <unicode hex="00A6"/>
  <outline>
    <contour>
      <point x="160" y="240" type="line"/>
      <point x="160" y="400" type="line"/>
      <point x="120" y="400" type="line"/>
      <point x="120" y="240" type="line"/>
    </contour>
    <contour>
      <point x="160" y="-40" type="line"/>
      <point x="160" y="120" type="line"/>
      <point x="120" y="120" type="line"/>
      <point x="120" y="-40" type="line"/>
    </contour>
  </outline>
</glyph>
<glyph name="copyright" format="1">
  <advance width="320"/>
  <unicode hex="00A9"/>
  <outline>
    <contour>
      <point x="200" y="80" type="line"/>
      <point x="200" y="120" type="line"/>
      <point x="240" y="120" type="line"/>
      <point x="240" y="160" type="line"/>
      <point x="280" y="160" type="line"/>
      <point x="280" y="320" type="line"/>
      <point x="240" y="320" type="line"/>
      <point x="240" y="360" type="line"/>
      <point x="200" y="360" type="line"/>
      <point x="200" y="400" type="line"/>
      <point x="80" y="400" type="line"/>
      <point x="80" y="360" type="line"/>
      <point x="40" y="360" type="line"/>
      <point x="40" y="320" type="line"/>
      <point x="0" y="320" type="line"/>
      <point x="0" y="160" type="line"/>
      <point x="40" y="160" type="line"/>
      <point x="40" y="120" type="line"/>
      <point x="80" y="120" type="line"/>
      <point x="80" y="80" type="line"/>
    </contour>
    <contour>
      <point x="80" y="160" type="line"/>
      <point x="200" y="160" type="line"/>
      <point x="200" y="120" type="line"/>
      <point x="80" y="120" type="line"/>
    </contour>
    <contour>
      <point x="40" y="320" type="line"/>
      <point x="80" y="320" type="line"/>
      <point x="80" y="160" type="line"/>
      <point x="40" y="160" type="line"/>
    </contour>
    <contour>
      <point x="200" y="200" type="line"/>
      <point x="120" y="200" type="line"/>
      <point x="120" y="280" type="line"/>
      <point x="200" y="280" type="line"/>
      <point x="200" y="320" type="line"/>
      <point x="240" y="320" type="line"/>
      <point x="240" y="160" type="line"/>
      <point x="200" y="160" type="line"/>
    </contour>
    <contour>
      <point x="80" y="360" type="line"/>
      <point x="200" y="360" type="line"/>
      <point x="200" y="320" type="line"/>
      <point x="80" y="320" type="line"/>
    </contour>
  </outline>
</glyph>
<glyph name="periodcentered" format="1">
  <advance width="320"/>
  <unicode hex="00B7"/>
  <outline>
    <contour>
      <point x="200" y="80" type="line"/>
      <point x="200" y="160" type="line"/>
      <point x="120" y="160" type="line"/>
      <point x="120" y="80" type="line"/>
    </contour>
  </outline>
</glyph>
<glyph name="Ecircumflex" format="1">
  <advance width="320"/>
  <unicode hex="00CA"/>
  <outline>
    <contour>
      <point x="280" y="0" type="line"/>
      <point x="280" y="40" type="line"/>
      <point x="40" y="40" type="line"/>
      <point x="40" y="80" type="line"/>
      <point x="240" y="80" type="line"/>
      <point x="240" y="120" type="line"/>
      <point x="40" y="120" type="line"/>
      <point x="40" y="160" type="line"/>
      <point x="280" y="160" type="line"/>
      <point x="280" y="200" type="line"/>
      <point x="0" y="200" type="line"/>
      <point x="0" y="0" type="line"/>
    </contour>
    <component base="circumflexcomb" xOffset="80"/>
  </outline>
</glyph>
<glyph name="Idieresis" format="1">
  <advance width="320"/>
  <unicode hex="00CF"/>
  <outline>
    <contour>
      <point x="200" y="0" type="line"/>
      <point x="200" y="40" type="line"/>
      <point x="120" y="40" type="line"/>
      <point x="120" y="160" type="line"/>
      <point x="200" y="160" type="line"/>
      <point x="200" y="200" type="line"/>
      <point x="0" y="200" type="line"/>
      <point x="0" y="160" type="line"/>
      <point x="80" y="160" type="line"/>
      <point x="80" y="40" type="line"/>
      <point x="0" y="40" type="line"/>
      <point x="0" y="0" type="line"/>
    </contour>
    <component base="dieresiscomb" xOffset="40"/>
  </outline>
</glyph>
<glyph name="Oacute" format="1">
  <advance width="320"/>
  <unicode hex="00D3"/>
  <note>
    Oacute
  </note>
  <outline>
    <contour>
      <point x="240" y="160" type="line"/>
      <point x="240" y="200" type="line"/>
      <point x="120" y="200" type="line"/>
      <point x="120" y="240" type="line"/>
      <point x="80" y="240" type="line"/>
      <point x="80" y="200" type="line"/>
      <point x="40" y="200" type="line"/>
      <point x="40" y="160" type="line"/>
    </contour>
    <contour>
      <point x="40" y="40" type="line"/>
      <point x="40" y="160" type="line"/>
      <point x="0" y="160" type="line"/>
      <point x="0" y="40" type="line"/>
    </contour>
    <contour>
      <point x="240" y="0" type="line"/>
      <point x="240" y="40" type="line"/>
      <point x="40" y="40" type="line"/>
      <point x="40" y="0" type="line"/>
    </contour>
    <contour>
      <point x="280" y="40" type="line"/>
      <point x="280" y="160" type="line"/>
      <point x="240" y="160" type="line"/>
      <point x="240" y="40" type="line"/>
    </contour>
    <contour>
      <point x="160" y="240" type="line"/>
      <point x="160" y="280" type="line"/>
      <point x="120" y="280" type="line"/>
      <point x="120" y="240" type="line"/>
    </contour>
  </outline>
</glyph>
<glyph name="icircumflex" format="1">
  <advance width="320"/>
  <unicode hex="00EE"/>
  <note>
    icircumflex
  </note>
  <outline>
    <contour>
      <point x="160" y="0" type="line"/>
      <point x="160" y="160" type="line"/>
      <point x="120" y="160" type="line"/>
      <point x="120" y="0" type="line"/>
    </contour>
    <contour>
      <point x="120" y="200" type="line"/>
      <point x="120" y="240" type="line"/>
      <point x="80" y="240" type="line"/>
      <point x="80" y="200" type="line"/>
    </contour>
    <contour>
      <point x="160" y="240" type="line"/>
      <point x="160" y="280" type="line"/>
      <point x="120" y="280" type="line"/>
      <point x="120" y="240" type="line"/>
    </contour>
    <contour>
      <point x="200" y="200" type="line"/>
      <point x="200" y="240" type="line"/>
      <point x="160" y="240" type="line"/>
      <point x="160" y="200" type="line"/>
    </contour>
  </outline>
</glyph>
<glyph name="gravecomb" format="1">
  <advance width="320"/>
  <unicode hex="0300"/>
  <outline>
    <contour>
      <point x="40" y="240" type="line"/>
      <point x="40" y="280" type="line"/>
      <point x="0" y="280" type="line"/>
      <point x="0" y="240" type="line"/>
    </contour>
    <contour>
      <point x="80" y="200" type="line"/>
      <point x="80" y="240" type="line"/>
      <point x="40" y="240" type="line"/>
      <point x="40" y="200" type="line"/>
    </contour>
  </outline>
</glyph>
<glyph name="macroncomb" format="1">
  <advance width="320"/>
  <unicode hex="0304"/>
  <outline>
    <contour>
      <point x="204" y="240" type="line"/>
      <point x="204" y="280" type="line"/>
      <point x="0" y="280" type="line"/>
      <point x="0" y="240" type="line"/>
    </contour>
  </outline>
</glyph>
<glyph name="hungarumlautcomb" format="1">
  <advance width="320"/>
  <unicode hex="030B"/>
  <outline>
    <contour>
      <point x="160" y="240" type="line"/>
      <point x="160" y="280" type="line"/>
      <point x="120" y="280" type="line"/>
      <point x="120" y="240" type="line"/>
    </contour>
    <contour>
      <point x="40" y="200" type="line"/>
      <point x="40" y="240" type="line"/>
      <point x="0" y="240" type="line"/>
      <point x="0" y="200" type="line"/>
    </contour>
    <contour>
      <point x="80" y="240" type="line"/>
      <point x="80" y="280" type="line"/>
      <point x="40" y="280" type="line"/>
      <point x="40" y="240" type="line"/>
    </contour>
    <contour>
      <point x="120" y="200" type="line"/>
      <point x="120" y="240" type="line"/>
      <point x="80" y="240" type="line"/>
      <point x="80" y="200" type="line"/>
    </contour>
  </outline>
</glyph>
<glyph name="commaaccentcomb" format="1">
  <advance width="320"/>
  <unicode hex="0326"/>
  <outline>
    <contour>
      <point x="40" y="-40" type="line"/>
      <point x="40" y="40" type="line"/>
      <point x="0" y="40" type="line"/>
      <point x="0" y="-40" type="line"/>
    </contour>
  </outline>
</glyph>
<glyph name="cedillacomb" format="1">
  <advance width="320"/>
  <unicode hex="0327"/>
  <outline>
    <contour>
      <point x="80" y="-40" type="line"/>
      <point x="80" y="40" type="line"/>
      <point x="40" y="40" type="line"/>
      <point x="40" y="0" type="line"/>
      <point x="0" y="0" type="line"/>
      <point x="0" y="-40" type="line"/>
    </contour>
  </outline>
</glyph>
<glyph name="strokeshortcomb" format="1">
  <advance width="320"/>
  <unicode hex="0335"/>
  <outline>
    <contour>
      <point x="160" y="120" type="line"/>
      <point x="160" y="160" type="line"/>
      <point x="0" y="160" type="line"/>
      <point x="0" y="120" type="line"/>
    </contour>
  </outline>
</glyph>
<glyph name="mieumCho-ko" format="1">
  <advance width="320"/>
  <unicode hex="1106"/>
  <outline>
    <contour>
      <point x="280" y="0" type="line"/>
      <point x="280" y="200" type="line"/>
      <point x="0" y="200" type="line"/>
      <point x="0" y="0" type="line"/>
    </contour>
    <contour>
      <point x="40" y="160" type="line"/>
      <point x="240" y="160" type="line"/>
      <point x="240" y="40" type="line"/>
      <point x="40" y="40" type="line"/>
    </contour>
  </outline>
</glyph>
<glyph name="khieukhCho-ko" format="1">
  <advance width="320"/>
  <unicode hex="110F"/>
  <outline>
    <contour>
      <point x="280" y="0" type="line"/>
      <point x="280" y="200" type="line"/>
      <point x="0" y="200" type="line"/>
      <point x="0" y="160" type="line"/>
      <point x="240" y="160" type="line"/>
      <point x="240" y="120" type="line"/>
      <point x="0" y="120" type="line"/>
      <point x="0" y="80" type="line"/>
      <point x="240" y="80" type="line"/>
      <point x="240" y="0" type="line"/>
    </contour>
  </outline>
</glyph>
<glyph name="hieuhCho-ko" format="1">
  <advance width="320"/>
  <unicode hex="1112"/>
  <outline>
    <contour>
      <point x="240" y="0" type="line"/>
      <point x="240" y="40" type="line"/>
      <point x="280" y="40" type="line"/>
      <point x="280" y="120" type="line"/>
      <point x="240" y="120" type="line"/>
      <point x="240" y="160" type="line"/>
      <point x="40" y="160" type="line"/>
      <point x="40" y="120" type="line"/>
      <point x="0" y="120" type="line"/>
      <point x="0" y="40" type="line"/>
      <point x="40" y="40" type="line"/>
      <point x="40" y="0" type="line"/>
    </contour>
    <contour>
      <point x="40" y="120" type="line"/>
      <point x="240" y="120" type="line"/>
      <point x="240" y="40" type="line"/>
      <point x="40" y="40" type="line"/>
    </contour>
    <contour>
      <point x="280" y="200" type="line"/>
      <point x="280" y="240" type="line"/>
      <point x="0" y="240" type="line"/>
      <point x="0" y="200" type="line"/>
    </contour>
    <contour>
      <point x="240" y="280" type="line"/>
      <point x="240" y="320" type="line"/>
      <point x="40" y="320" type="line"/>
      <point x="40" y="280" type="line"/>
    </contour>
  </outline>
</glyph>
<glyph name="eoJung-ko" format="1">
  <advance width="320"/>
  <unicode hex="1165"/>
  <outline>
    <contour>
      <point x="80" y="0" type="line"/>
      <point x="80" y="280" type="line"/>
      <point x="40" y="280" type="line"/>
      <point x="40" y="160" type="line"/>
      <point x="0" y="160" type="line"/>
      <point x="0" y="120" type="line"/>
      <point x="40" y="120" type="line"/>
      <point x="40" y="0" type="line"/>
    </contour>
  </outline>
</glyph>
<glyph name="yeoJung-ko" format="1">
  <advance width="320"/>
  <unicode hex="1167"/>
  <outline>
    <contour>
      <point x="80" y="0" type="line"/>
      <point x="80" y="280" type="line"/>
      <point x="40" y="280" type="line"/>
      <point x="40" y="200" type="line"/>
      <point x="0" y="200" type="line"/>
      <point x="0" y="160" type="line"/>
      <point x="40" y="160" type="line"/>
      <point x="40" y="120" type="line"/>
      <point x="0" y="120" type="line"/>
      <point x="0" y="80" type="line"/>
      <point x="40" y="80" type="line"/>
      <point x="40" y="0" type="line"/>
    </contour>
  </outline>
</glyph>
<glyph name="oJung-ko" format="1">
  <advance width="320"/>
  <unicode hex="1169"/>
  <outline>
    <contour>
      <point x="280" y="40" type="line"/>
      <point x="280" y="80" type="line"/>
      <point x="160" y="80" type="line"/>
      <point x="160" y="160" type="line"/>
      <point x="120" y="160" type="line"/>
      <point x="120" y="80" type="line"/>
      <point x="0" y="80" type="line"/>
      <point x="0" y="40" type="line"/>
    </contour>
  </outline>
</glyph>
<glyph name="yiJung-ko" format="1">
  <advance width="320"/>
  <unicode hex="1174"/>
  <outline>
    <contour>
      <point x="280" y="0" type="line"/>
      <point x="280" y="280" type="line"/>
      <point x="240" y="280" type="line"/>
      <point x="240" y="0" type="line"/>
    </contour>
    <contour>
      <point x="200" y="40" type="line"/>
      <point x="200" y="80" type="line"/>
      <point x="0" y="80" type="line"/>
      <point x="0" y="40" type="line"/>
    </contour>
  </outline>
</glyph>
<glyph name="endash" format="1">
  <advance width="320"/>
  <unicode hex="2013"/>
  <outline>
    <contour>
      <point x="280" y="80" type="line"/>
      <point x="280" y="120" type="line"/>
      <point x="40" y="120" type="line"/>
      <point x="40" y="80" type="line"/>
    </contour>
  </outline>
</glyph>
<glyph name="emdash" format="1">
  <advance width="320"/>
  <unicode hex="2014"/>
  <outline>
    <contour>
      <point x="320" y="80" type="line"/>
      <point x="320" y="120" type="line"/>
      <point x="0" y="120" type="line"/>
      <point x="0" y="80" type="line"/>
    </contour>
  </outline>
</glyph>
<glyph name="quoteleft" format="1">
  <advance width="320"/>
  <unicode hex="2018"/>
  <outline>
    <contour>
      <point x="200" y="160" type="line"/>
      <point x="200" y="200" type="line"/>
      <point x="160" y="200" type="line"/>
      <point x="160" y="240" type="line"/>
      <point x="120" y="240" type="line"/>
      <point x="120" y="160" type="line"/>
    </contour>
    <contour>
      <point x="200" y="240" type="line"/>
      <point x="200" y="280" type="line"/>
      <point x="160" y="280" type="line"/>
      <point x="160" y="240" type="line"/>
    </contour>
  </outline>
</glyph>
<glyph name="ellipsis" format="1">
  <advance width="320"/>
  <unicode hex="2026"/>
  <note>
    o
  </note>
  <outline>
    <contour>
      <point x="240" y="80" type="line"/>
      <point x="240" y="120" type="line"/>
      <point x="200" y="120" type="line"/>
      <point x="200" y="80" type="line"/>
    </contour>
    <contour>
      <point x="80" y="80" type="line"/>
      <point x="80" y="120" type="line"/>
      <point x="40" y="120" type="line"/>
      <point x="40" y="80" type="line"/>
    </contour>
    <contour>
      <point x="160" y="80" type="line"/>
      <point x="160" y="120" type="line"/>
      <point x="120" y="120" type="line"/>
      <point x="120" y="80" type="line"/>
    </contour>
  </outline>
</glyph>
<glyph name="guilsinglleft" format="1">
  <advance width="320"/>
  <unicode hex="2039"/>
  <outline>
    <contour>
      <point x="240" y="-40" type="line"/>
      <point x="240" y="40" type="line"/>
      <point x="200" y="40" type="line"/>
      <point x="200" y="160" type="line"/>
      <point x="240" y="160" type="line"/>
      <point x="240" y="240" type="line"/>
      <point x="200" y="240" type="line"/>
      <point x="200" y="200" type="line"/>
      <point x="160" y="200" type="line"/>
      <point x="160" y="160" type="line"/>
      <point x="120" y="160" type="line"/>
      <point x="120" y="120" type="line"/>
      <point x="80" y="120" type="line"/>
      <point x="80" y="80" type="line"/>
      <point x="120" y="80" type="line"/>
      <point x="120" y="40" type="line"/>
      <point x="160" y="40" type="line"/>
      <point x="160" y="0" type="line"/>
      <point x="200" y="0" type="line"/>
      <point x="200" y="-40" type="line"/>
    </contour>
  </outline>
</glyph>
<glyph name="euro" format="1">
  <advance width="320"/>
  <unicode hex="20AC"/>
  <outline>
    <contour>
      <point x="120" y="0" type="line"/>
      <point x="120" y="80" type="line"/>
      <point x="240" y="80" type="line"/>
      <point x="240" y="120" type="line"/>
      <point x="120" y="120" type="line"/>
      <point x="120" y="160" type="line"/>
      <point x="240" y="160" type="line"/>
      <point x="240" y="200" type="line"/>
      <point x="120" y="200" type="line"/>
      <point x="120" y="240" type="line"/>
      <point x="80" y="240" type="line"/>
      <point x="80" y="200" type="line"/>
      <point x="40" y="200" type="line"/>
      <point x="40" y="160" type="line"/>
      <point x="80" y="160" type="line"/>
      <point x="80" y="120" type="line"/>
      <point x="40" y="120" type="line"/>
      <point x="40" y="80" type="line"/>
      <point x="80" y="80" type="line"/>
      <point x="80" y="0" type="line"/>
    </contour>
    <contour>
      <point x="280" y="-40" type="line"/>
      <point x="280" y="0" type="line"/>
      <point x="120" y="0" type="line"/>
      <point x="120" y="-40" type="line"/>
    </contour>
    <contour>
      <point x="280" y="240" type="line"/>
      <point x="280" y="280" type="line"/>
      <point x="120" y="280" type="line"/>
      <point x="120" y="240" type="line"/>
    </contour>
  </outline>
</glyph>
<glyph name="leftRightArrow" format="1">
  <advance width="320"/>
  <unicode hex="2194"/>
  <outline>
    <contour>
      <point x="40" y="120" type="line"/>
      <point x="40" y="80" type="line"/>
      <point x="80" y="80" type="line"/>
      <point x="80" y="40" type="line"/>
      <point x="120" y="40" type="line"/>
      <point x="120" y="80" type="line"/>
      <point x="80" y="80" type="line"/>
      <point x="80" y="120" type="line"/>
      <point x="240" y="120" type="line"/>
      <point x="240" y="80" type="line"/>
      <point x="200" y="80" type="line"/>
      <point x="200" y="40" type="line"/>
      <point x="240" y="40" type="line"/>
      <point x="240" y="80" type="line"/>
      <point x="280" y="80" type="line"/>
      <point x="280" y="120" type="line"/>
      <point x="320" y="120" type="line"/>
      <point x="320" y="160" type="line"/>
      <point x="280" y="160" type="line"/>
      <point x="280" y="200" type="line"/>
      <point x="240" y="200" type="line"/>
      <point x="240" y="240" type="line"/>
      <point x="200" y="240" type="line"/>
      <point x="200" y="200" type="line"/>
      <point x="240" y="200" type="line"/>
      <point x="240" y="160" type="line"/>
      <point x="80" y="160" type="line"/>
      <point x="80" y="200" type="line"/>
      <point x="120" y="200" type="line"/>
      <point x="120" y="240" type="line"/>
      <point x="80" y="240" type="line"/>
      <point x="80" y="200" type="line"/>
      <point x="40" y="200" type="line"/>
      <point x="40" y="160" type="line"/>
      <point x="0" y="160" type="line"/>
      <point x="0" y="120" type="line"/>
    </contour>
  </outline>
</glyph>
<glyph name="product" format="1">
  <advance width="320"/>
  <unicode hex="220F"/>
  <outline>
    <contour>
      <point x="0" y="280" type="line"/>
      <point x="260" y="280" type="line"/>
      <point x="260" y="320" type="line"/>
      <point x="0" y="320" type="line"/>
    </contour>
    <contour>
      <point x="40" y="-40" type="line"/>
      <point x="80" y="-40" type="line"/>
      <point x="80" y="280" type="line"/>
      <point x="40" y="280" type="line"/>
    </contour>
    <contour>
      <point x="180" y="-40" type="line"/>
      <point x="220" y="-40" type="line"/>
      <point x="220" y="280" type="line"/>
      <point x="180" y="280" type="line"/>
    </contour>
  </outline>
</glyph>
<glyph name="minus" format="1">
  <advance width="320"/>
  <unicode hex="2212"/>
  <outline>
    <contour>
      <point x="240" y="80" type="line"/>
      <point x="240" y="120" type="line"/>
      <point x="40" y="120" type="line"/>
      <point x="40" y="80" type="line"/>
    </contour>
  </outline>
</glyph>
<glyph name="radical" format="1">
  <advance width="320"/>
  <unicode hex="221A"/>
  <outline>
    <contour>
      <point x="40" y="40" type="line"/>
      <point x="40" y="0" type="line"/>
      <point x="80" y="0" type="line"/>
      <point x="80" y="-40" type="line"/>
      <point x="120" y="-40" type="line"/>
      <point x="120" y="0" type="line"/>
      <point x="160" y="0" type="line"/>
      <point x="160" y="80" type="line"/>
      <point x="200" y="80" type="line"/>
      <point x="200" y="200" type="line"/>
      <point x="240" y="200" type="line"/>
      <point x="240" y="280" type="line"/>
      <point x="280" y="280" type="line"/>
      <point x="280" y="320" type="line"/>
      <point x="200" y="320" type="line"/>
      <point x="200" y="200" type="line"/>
      <point x="160" y="200" type="line"/>
      <point x="160" y="80" type="line"/>
      <point x="120" y="80" type="line"/>
      <point x="120" y="0" type="line"/>
      <point x="80" y="0" type="line"/>
      <point x="80" y="40" type="line"/>
      <point x="40" y="40" type="line"/>
      <point x="40" y="80" type="line"/>
      <point x="0" y="80" type="line"/>
      <point x="0" y="40" type="line"/>
    </contour>
  </outline>
</glyph>
<glyph name="notequal" format="1">
  <advance width="320"/>
  <unicode hex="2260"/>
  <outline>
    <contour>
      <point x="240" y="160" type="line"/>
      <point x="240" y="200" type="line"/>
      <point x="40" y="200" type="line"/>
      <point x="40" y="160" type="line"/>
    </contour>
    <contour>
      <point x="120" y="0" type="line"/>
      <point x="120" y="40" type="line"/>
      <point x="80" y="40" type="line"/>
      <point x="80" y="0" type="line"/>
    </contour>
    <contour>
      <point x="240" y="40" type="line"/>
      <point x="240" y="80" type="line"/>
      <point x="40" y="80" type="line"/>
      <point x="40" y="40" type="line"/>
    </contour>
    <contour>
      <point x="160" y="80" type="line"/>
      <point x="160" y="120" type="line"/>
      <point x="120" y="120" type="line"/>
      <point x="120" y="80" type="line"/>
    </contour>
    <contour>
      <point x="160" y="120" type="line"/>
      <point x="160" y="160" type="line"/>
      <point x="120" y="160" type="line"/>
      <point x="120" y="120" type="line"/>
    </contour>
    <contour>
      <point x="200" y="200" type="line"/>
      <point x="200" y="240" type="line"/>
      <point x="160" y="240" type="line"/>
      <point x="160" y="200" type="line"/>
    </contour>
  </outline>
</glyph>
<glyph name="greaterequal" format="1">
  <advance width="320"/>
  <unicode hex="2265"/>
  <outline>
    <contour>
      <point x="240" y="0" type="line"/>
      <point x="240" y="40" type="line"/>
      <point x="40" y="40" type="line"/>
      <point x="40" y="0" type="line"/>
    </contour>
    <contour>
      <point x="160" y="80" type="line"/>
      <point x="160" y="120" type="line"/>
      <point x="240" y="120" type="line"/>
      <point x="240" y="160" type="line"/>
      <point x="160" y="160" type="line"/>
      <point x="160" y="200" type="line"/>
      <point x="40" y="200" type="line"/>
      <point x="40" y="160" type="line"/>
      <point x="120" y="160" type="line"/>
      <point x="120" y="120" type="line"/>
      <point x="40" y="120" type="line"/>
      <point x="40" y="80" type="line"/>
    </contour>
  </outline>
</glyph>
<glyph name="rightBlackTriangle" format="1">
  <advance width="320"/>
  <unicode hex="25B6"/>
  <note>
    uni25B6
  </note>
  <outline>
    <contour>
      <point x="120" y="-40" type="line"/>
      <point x="120" y="0" type="line"/>
      <point x="160" y="0" type="line"/>
      <point x="160" y="40" type="line"/>
      <point x="200" y="40" type="line"/>
      <point x="200" y="80" type="line"/>
      <point x="240" y="80" type="line"/>
      <point x="240" y="120" type="line"/>
      <point x="200" y="120" type="line"/>
      <point x="200" y="160" type="line"/>
      <point x="160" y="160" type="line"/>
      <point x="160" y="200" type="line"/>
      <point x="120" y="200" type="line"/>
      <point x="120" y="240" type="line"/>
      <point x="40" y="240" type="line"/>
      <point x="40" y="-40" type="line"/>
    </contour>
  </outline>
</glyph>
<glyph name="period-han" format="1">
  <advance width="320"/>
  <unicode hex="3002"/>
  <note>
    q
  </note>
  <outline>
    <contour>
      <point x="200" y="0" type="line"/>
      <point x="200" y="120" type="line"/>
      <point x="80" y="120" type="line"/>
      <point x="80" y="0" type="line"/>
    </contour>
    <contour>
      <point x="120" y="80" type="line"/>
      <point x="160" y="80" type="line"/>
      <point x="160" y="40" type="line"/>
      <point x="120" y="40" type="line"/>
    </contour>
  </outline>
</glyph>
<glyph name="asmall-hira" format="1">
  <advance width="320"/>
  <unicode hex="3041"/>
  <note>
    exclam
  </note>
  <outline>
    <contour>
      <point x="160" y="0" type="line"/>
      <point x="160" y="40" type="line"/>
      <point x="200" y="40" type="line"/>
      <point x="200" y="80" type="line"/>
      <point x="120" y="80" type="line"/>
      <point x="120" y="120" type="line"/>
      <point x="200" y="120" type="line"/>
      <point x="200" y="160" type="line"/>
      <point x="120" y="160" type="line"/>
      <point x="120" y="200" type="line"/>
      <point x="80" y="200" type="line"/>
      <point x="80" y="160" type="line"/>
      <point x="40" y="160" type="line"/>
      <point x="40" y="120" type="line"/>
      <point x="80" y="120" type="line"/>
      <point x="80" y="80" type="line"/>
      <point x="40" y="80" type="line"/>
      <point x="40" y="40" type="line"/>
      <point x="120" y="40" type="line"/>
      <point x="120" y="0" type="line"/>
    </contour>
    <contour>
      <point x="40" y="0" type="line"/>
      <point x="40" y="40" type="line"/>
      <point x="0" y="40" type="line"/>
      <point x="0" y="0" type="line"/>
    </contour>
    <contour>
      <point x="120" y="-40" type="line"/>
      <point x="120" y="0" type="line"/>
      <point x="40" y="0" type="line"/>
      <point x="40" y="-40" type="line"/>
    </contour>
    <contour>
      <point x="240" y="-40" type="line"/>
      <point x="240" y="40" type="line"/>
      <point x="200" y="40" type="line"/>
      <point x="200" y="-40" type="line"/>
    </contour>
  </outline>
</glyph>
<glyph name="ka-hira" format="1">
  <advance width="320"/>
  <unicode hex="304B"/>
  <note>
    S
  </note>
  <outline>
    <contour>
      <point x="80" y="80" type="line"/>
      <point x="80" y="160" type="line"/>
      <point x="160" y="160" type="line"/>
      <point x="160" y="200" type="line"/>
      <point x="80" y="200" type="line"/>
      <point x="80" y="280" type="line"/>
      <point x="40" y="280" type="line"/>
      <point x="40" y="200" type="line"/>
      <point x="0" y="200" type="line"/>
      <point x="0" y="160" type="line"/>
      <point x="40" y="160" type="line"/>
      <point x="40" y="80" type="line"/>
    </contour>
    <contour>
      <point x="40" y="40" type="line"/>
      <point x="40" y="80" type="line"/>
      <point x="0" y="80" type="line"/>
      <point x="0" y="40" type="line"/>
    </contour>
    <contour>
      <point x="160" y="-40" type="line"/>
      <point x="160" y="0" type="line"/>
      <point x="80" y="0" type="line"/>
      <point x="80" y="-40" type="line"/>
    </contour>
    <contour>
      <point x="200" y="0" type="line"/>
      <point x="200" y="160" type="line"/>
      <point x="160" y="160" type="line"/>
      <point x="160" y="0" type="line"/>
    </contour>
    <contour>
      <point x="280" y="120" type="line"/>
      <point x="280" y="200" type="line"/>
      <point x="240" y="200" type="line"/>
      <point x="240" y="120" type="line"/>
    </contour>
    <contour>
      <point x="240" y="200" type="line"/>
      <point x="240" y="240" type="line"/>
      <point x="200" y="240" type="line"/>
      <point x="200" y="200" type="line"/>
    </contour>
  </outline>
</glyph>
<glyph name="za-hira" format="1">
  <advance width="320"/>
  <unicode hex="3056"/>
  <note>
    T
  </note>
  <outline>
    <contour>
      <point x="240" y="80" type="line"/>
      <point x="240" y="120" type="line"/>
      <point x="200" y="120" type="line"/>
      <point x="200" y="160" type="line"/>
      <point x="280" y="160" type="line"/>
      <point x="280" y="200" type="line"/>
      <point x="160" y="200" type="line"/>
      <point x="160" y="240" type="line"/>
      <point x="120" y="240" type="line"/>
      <point x="120" y="200" type="line"/>
      <point x="0" y="200" type="line"/>
      <point x="0" y="160" type="line"/>
      <point x="160" y="160" type="line"/>
      <point x="160" y="120" type="line"/>
      <point x="40" y="120" type="line"/>
      <point x="40" y="80" type="line"/>
    </contour>
    <contour>
      <point x="40" y="0" type="line"/>
      <point x="40" y="80" type="line"/>
      <point x="0" y="80" type="line"/>
      <point x="0" y="0" type="line"/>
    </contour>
    <contour>
      <point x="240" y="-40" type="line"/>
      <point x="240" y="0" type="line"/>
      <point x="40" y="0" type="line"/>
      <point x="40" y="-40" type="line"/>
    </contour>
    <contour>
      <point x="120" y="240" type="line"/>
      <point x="120" y="280" type="line"/>
      <point x="80" y="280" type="line"/>
      <point x="80" y="240" type="line"/>
    </contour>
    <contour>
      <point x="160" y="320" type="line"/>
      <point x="160" y="360" type="line"/>
      <point x="120" y="360" type="line"/>
      <point x="120" y="320" type="line"/>
    </contour>
    <contour>
      <point x="200" y="280" type="line"/>
      <point x="200" y="320" type="line"/>
      <point x="160" y="320" type="line"/>
      <point x="160" y="280" type="line"/>
    </contour>
    <contour>
      <point x="240" y="360" type="line"/>
      <point x="240" y="400" type="line"/>
      <point x="200" y="400" type="line"/>
      <point x="200" y="360" type="line"/>
    </contour>
    <contour>
      <point x="280" y="320" type="line"/>
      <point x="280" y="360" type="line"/>
      <point x="240" y="360" type="line"/>
      <point x="240" y="320" type="line"/>
    </contour>
  </outline>
</glyph>
<glyph name="si-hira" format="1">
  <advance width="320"/>
  <unicode hex="3057"/>
  <note>
    comma
  </note>
  <outline>
    <contour>
      <point x="40" y="0" type="line"/>
      <point x="40" y="280" type="line"/>
      <point x="0" y="280" type="line"/>
      <point x="0" y="0" type="line"/>
    </contour>
    <contour>
      <point x="160" y="-40" type="line"/>
      <point x="160" y="0" type="line"/>
      <point x="40" y="0" type="line"/>
      <point x="40" y="-40" type="line"/>
    </contour>
    <contour>
      <point x="200" y="0" type="line"/>
      <point x="200" y="80" type="line"/>
      <point x="160" y="80" type="line"/>
      <point x="160" y="0" type="line"/>
    </contour>
  </outline>
</glyph>
<glyph name="ta-hira" format="1">
  <advance width="320"/>
  <unicode hex="305F"/>
  <note>
    dollar
  </note>
  <outline>
    <contour>
      <point x="80" y="40" type="line"/>
      <point x="80" y="160" type="line"/>
      <point x="240" y="160" type="line"/>
      <point x="240" y="200" type="line"/>
      <point x="120" y="200" type="line"/>
      <point x="120" y="280" type="line"/>
      <point x="80" y="280" type="line"/>
      <point x="80" y="200" type="line"/>
      <point x="0" y="200" type="line"/>
      <point x="0" y="160" type="line"/>
      <point x="40" y="160" type="line"/>
      <point x="40" y="40" type="line"/>
    </contour>
    <contour>
      <point x="40" y="-40" type="line"/>
      <point x="40" y="40" type="line"/>
      <point x="0" y="40" type="line"/>
      <point x="0" y="-40" type="line"/>
    </contour>
    <contour>
      <point x="160" y="0" type="line"/>
      <point x="160" y="40" type="line"/>
      <point x="120" y="40" type="line"/>
      <point x="120" y="0" type="line"/>
    </contour>
    <contour>
      <point x="280" y="-40" type="line"/>
      <point x="280" y="0" type="line"/>
      <point x="160" y="0" type="line"/>
      <point x="160" y="-40" type="line"/>
    </contour>
    <contour>
      <point x="280" y="80" type="line"/>
      <point x="280" y="120" type="line"/>
      <point x="120" y="120" type="line"/>
      <point x="120" y="80" type="line"/>
    </contour>
  </outline>
</glyph>
<glyph name="ni-hira" format="1">
  <advance width="320"/>
  <unicode hex="306B"/>
  <note>
    period
  </note>
  <outline>
    <contour>
      <point x="40" y="-40" type="line"/>
      <point x="40" y="240" type="line"/>
      <point x="0" y="240" type="line"/>
      <point x="0" y="-40" type="line"/>
    </contour>
    <contour>
      <point x="120" y="0" type="line"/>
      <point x="120" y="80" type="line"/>
      <point x="80" y="80" type="line"/>
      <point x="80" y="0" type="line"/>
    </contour>
    <contour>
      <point x="280" y="-40" type="line"/>
      <point x="280" y="0" type="line"/>
      <point x="120" y="0" type="line"/>
      <point x="120" y="-40" type="line"/>
    </contour>
    <contour>
      <point x="280" y="200" type="line"/>
      <point x="280" y="240" type="line"/>
      <point x="120" y="240" type="line"/>
      <point x="120" y="200" type="line"/>
    </contour>
  </outline>
</glyph>
<glyph name="ho-hira" format="1">
  <advance width="320"/>
  <unicode hex="307B"/>
  <note>
    k
  </note>
  <outline>
    <contour>
      <point x="240" y="0" type="line"/>
      <point x="240" y="40" type="line"/>
      <point x="280" y="40" type="line"/>
      <point x="280" y="80" type="line"/>
      <point x="240" y="80" type="line"/>
      <point x="240" y="160" type="line"/>
      <point x="280" y="160" type="line"/>
      <point x="280" y="200" type="line"/>
      <point x="240" y="200" type="line"/>
      <point x="240" y="240" type="line"/>
      <point x="280" y="240" type="line"/>
      <point x="280" y="280" type="line"/>
      <point x="120" y="280" type="line"/>
      <point x="120" y="240" type="line"/>
      <point x="200" y="240" type="line"/>
      <point x="200" y="200" type="line"/>
      <point x="120" y="200" type="line"/>
      <point x="120" y="160" type="line"/>
      <point x="200" y="160" type="line"/>
      <point x="200" y="120" type="line"/>
      <point x="120" y="120" type="line"/>
      <point x="120" y="80" type="line"/>
      <point x="200" y="80" type="line"/>
      <point x="200" y="0" type="line"/>
    </contour>
    <contour>
      <point x="40" y="-40" type="line"/>
      <point x="40" y="240" type="line"/>
      <point x="0" y="240" type="line"/>
      <point x="0" y="-40" type="line"/>
    </contour>
    <contour>
      <point x="120" y="0" type="line"/>
      <point x="120" y="80" type="line"/>
      <point x="80" y="80" type="line"/>
      <point x="80" y="0" type="line"/>
    </contour>
    <contour>
      <point x="200" y="-40" type="line"/>
      <point x="200" y="0" type="line"/>
      <point x="120" y="0" type="line"/>
      <point x="120" y="-40" type="line"/>
    </contour>
  </outline>
</glyph>
<glyph name="we-hira" format="1">
  <advance width="320"/>
  <unicode hex="3091"/>
  <outline>
    <contour>
      <point x="240" y="160" type="line"/>
      <point x="240" y="200" type="line"/>
      <point x="200" y="200" type="line"/>
      <point x="200" y="240" type="line"/>
      <point x="240" y="240" type="line"/>
      <point x="240" y="280" type="line"/>
      <point x="40" y="280" type="line"/>
      <point x="40" y="240" type="line"/>
      <point x="120" y="240" type="line"/>
      <point x="120" y="200" type="line"/>
      <point x="40" y="200" type="line"/>
      <point x="40" y="160" type="line"/>
    </contour>
    <contour>
      <point x="40" y="-40" type="line"/>
      <point x="40" y="0" type="line"/>
      <point x="0" y="0" type="line"/>
      <point x="0" y="-40" type="line"/>
    </contour>
    <contour>
      <point x="160" y="-40" type="line"/>
      <point x="160" y="0" type="line"/>
      <point x="120" y="0" type="line"/>
      <point x="120" y="-40" type="line"/>
    </contour>
    <contour>
      <point x="40" y="120" type="line"/>
      <point x="40" y="160" type="line"/>
      <point x="0" y="160" type="line"/>
      <point x="0" y="120" type="line"/>
    </contour>
    <contour>
      <point x="120" y="0" type="line"/>
      <point x="120" y="40" type="line"/>
      <point x="160" y="40" type="line"/>
      <point x="160" y="0" type="line"/>
      <point x="240" y="0" type="line"/>
      <point x="240" y="80" type="line"/>
      <point x="160" y="80" type="line"/>
      <point x="160" y="120" type="line"/>
      <point x="80" y="120" type="line"/>
      <point x="80" y="40" type="line"/>
      <point x="40" y="40" type="line"/>
      <point x="40" y="0" type="line"/>
    </contour>
    <contour>
      <point x="280" y="-40" type="line"/>
      <point x="280" y="0" type="line"/>
      <point x="240" y="0" type="line"/>
      <point x="240" y="-40" type="line"/>
    </contour>
    <contour>
      <point x="280" y="80" type="line"/>
      <point x="280" y="160" type="line"/>
      <point x="240" y="160" type="line"/>
      <point x="240" y="80" type="line"/>
    </contour>
  </outline>
</glyph>
<glyph name="voicedcomb-kana" format="1">
  <advance width="320"/>
  <unicode hex="3099"/>
  <outline>
    <contour>
      <point x="120" y="360" type="line"/>
      <point x="120" y="400" type="line"/>
      <point x="80" y="400" type="line"/>
      <point x="80" y="360" type="line"/>
    </contour>
    <contour>
      <point x="40" y="320" type="line"/>
      <point x="40" y="360" type="line"/>
      <point x="0" y="360" type="line"/>
      <point x="0" y="320" type="line"/>
    </contour>
    <contour>
      <point x="80" y="280" type="line"/>
      <point x="80" y="320" type="line"/>
      <point x="40" y="320" type="line"/>
      <point x="40" y="280" type="line"/>
    </contour>
    <contour>
      <point x="160" y="320" type="line"/>
      <point x="160" y="360" type="line"/>
      <point x="120" y="360" type="line"/>
      <point x="120" y="320" type="line"/>
    </contour>
  </outline>
</glyph>
<glyph name="iteration-hira" format="1">
  <advance width="320"/>
  <unicode hex="309D"/>
  <outline>
    <contour>
      <point x="120" y="40" type="line"/>
      <point x="120" y="120" type="line"/>
      <point x="80" y="120" type="line"/>
      <point x="80" y="40" type="line"/>
    </contour>
    <contour>
      <point x="80" y="0" type="line"/>
      <point x="80" y="40" type="line"/>
      <point x="40" y="40" type="line"/>
      <point x="40" y="0" type="line"/>
    </contour>
    <contour>
      <point x="40" y="160" type="line"/>
      <point x="40" y="200" type="line"/>
      <point x="0" y="200" type="line"/>
      <point x="0" y="160" type="line"/>
    </contour>
    <contour>
      <point x="80" y="120" type="line"/>
      <point x="80" y="160" type="line"/>
      <point x="40" y="160" type="line"/>
      <point x="40" y="120" type="line"/>
    </contour>
  </outline>
</glyph>
<glyph name="dblhyphen-kana" format="1">
  <advance width="320"/>
  <unicode hex="30A0"/>
  <note>
    A
  </note>
  <outline>
    <contour>
      <point x="240" y="120" type="line"/>
      <point x="240" y="160" type="line"/>
      <point x="80" y="160" type="line"/>
      <point x="80" y="120" type="line"/>
    </contour>
    <contour>
      <point x="240" y="40" type="line"/>
      <point x="240" y="80" type="line"/>
      <point x="80" y="80" type="line"/>
      <point x="80" y="40" type="line"/>
    </contour>
  </outline>
</glyph>
<glyph name="ismall-kata" format="1">
  <advance width="320"/>
  <unicode hex="30A3"/>
  <note>
    q
  </note>
  <outline>
    <contour>
      <point x="120" y="-40" type="line"/>
      <point x="120" y="120" type="line"/>
      <point x="80" y="120" type="line"/>
      <point x="80" y="80" type="line"/>
      <point x="0" y="80" type="line"/>
      <point x="0" y="40" type="line"/>
      <point x="80" y="40" type="line"/>
      <point x="80" y="-40" type="line"/>
    </contour>
    <contour>
      <point x="160" y="120" type="line"/>
      <point x="160" y="160" type="line"/>
      <point x="120" y="160" type="line"/>
      <point x="120" y="120" type="line"/>
    </contour>
  </outline>
</glyph>
<glyph name="u-kata" format="1">
  <advance width="320"/>
  <unicode hex="30A6"/>
  <note>
    C
  </note>
  <outline>
    <contour>
      <point x="280" y="40" type="line"/>
      <point x="280" y="200" type="line"/>
      <point x="160" y="200" type="line"/>
      <point x="160" y="280" type="line"/>
      <point x="120" y="280" type="line"/>
      <point x="120" y="200" type="line"/>
      <point x="0" y="200" type="line"/>
      <point x="0" y="80" type="line"/>
      <point x="40" y="80" type="line"/>
      <point x="40" y="160" type="line"/>
      <point x="240" y="160" type="line"/>
      <point x="240" y="40" type="line"/>
    </contour>
    <contour>
      <point x="200" y="-40" type="line"/>
      <point x="200" y="0" type="line"/>
      <point x="120" y="0" type="line"/>
      <point x="120" y="-40" type="line"/>
    </contour>
    <contour>
      <point x="240" y="0" type="line"/>
      <point x="240" y="40" type="line"/>
      <point x="200" y="40" type="line"/>
      <point x="200" y="0" type="line"/>
    </contour>
  </outline>
</glyph>
<glyph name="e-kata" format="1">
  <advance width="320"/>
  <unicode hex="30A8"/>
  <note>
    D
  </note>
  <outline>
    <contour>
      <point x="280" y="-40" type="line"/>
      <point x="280" y="0" type="line"/>
      <point x="160" y="0" type="line"/>
      <point x="160" y="200" type="line"/>
      <point x="240" y="200" type="line"/>
      <point x="240" y="240" type="line"/>
      <point x="40" y="240" type="line"/>
      <point x="40" y="200" type="line"/>
      <point x="120" y="200" type="line"/>
      <point x="120" y="0" type="line"/>
      <point x="0" y="0" type="line"/>
      <point x="0" y="-40" type="line"/>
    </contour>
  </outline>
</glyph>
<glyph name="ki-kata" format="1">
  <advance width="320"/>
  <unicode hex="30AD"/>
  <note>
    G
  </note>
  <outline>
    <contour>
      <point x="160" y="-40" type="line"/>
      <point x="160" y="80" type="line"/>
      <point x="280" y="80" type="line"/>
      <point x="280" y="120" type="line"/>
      <point x="160" y="120" type="line"/>
      <point x="160" y="200" type="line"/>
      <point x="280" y="200" type="line"/>
      <point x="280" y="240" type="line"/>
      <point x="160" y="240" type="line"/>
      <point x="160" y="280" type="line"/>
      <point x="120" y="280" type="line"/>
      <point x="120" y="240" type="line"/>
      <point x="0" y="240" type="line"/>
      <point x="0" y="200" type="line"/>
      <point x="120" y="200" type="line"/>
      <point x="120" y="120" type="line"/>
      <point x="0" y="120" type="line"/>
      <point x="0" y="80" type="line"/>
      <point x="120" y="80" type="line"/>
      <point x="120" y="-40" type="line"/>
    </contour>
  </outline>
</glyph>
<glyph name="ko-kata" format="1">
  <advance width="320"/>
  <unicode hex="30B3"/>
  <note>
    J
  </note>
  <outline>
    <contour>
      <point x="240" y="-40" type="line"/>
      <point x="240" y="240" type="line"/>
      <point x="0" y="240" type="line"/>
      <point x="0" y="200" type="line"/>
      <point x="200" y="200" type="line"/>
      <point x="200" y="0" type="line"/>
      <point x="0" y="0" type="line"/>
      <point x="0" y="-40" type="line"/>
    </contour>
  </outline>
</glyph>
<glyph name="nu-kata" format="1">
  <advance width="320"/>
  <unicode hex="30CC"/>
  <note>
    W
  </note>
  <outline>
    <contour>
      <point x="280" y="120" type="line"/>
      <point x="280" y="240" type="line"/>
      <point x="0" y="240" type="line"/>
      <point x="0" y="200" type="line"/>
      <point x="240" y="200" type="line"/>
      <point x="240" y="120" type="line"/>
    </contour>
    <contour>
      <point x="120" y="-40" type="line"/>
      <point x="120" y="0" type="line"/>
      <point x="40" y="0" type="line"/>
      <point x="40" y="-40" type="line"/>
    </contour>
    <contour>
      <point x="160" y="0" type="line"/>
      <point x="160" y="40" type="line"/>
      <point x="120" y="40" type="line"/>
      <point x="120" y="0" type="line"/>
    </contour>
    <contour>
      <point x="160" y="80" type="line"/>
      <point x="160" y="120" type="line"/>
      <point x="120" y="120" type="line"/>
      <point x="120" y="80" type="line"/>
    </contour>
    <contour>
      <point x="200" y="40" type="line"/>
      <point x="200" y="80" type="line"/>
      <point x="160" y="80" type="line"/>
      <point x="160" y="40" type="line"/>
    </contour>
    <contour>
      <point x="240" y="0" type="line"/>
      <point x="240" y="40" type="line"/>
      <point x="200" y="40" type="line"/>
      <point x="200" y="0" type="line"/>
    </contour>
    <contour>
      <point x="280" y="-40" type="line"/>
      <point x="280" y="0" type="line"/>
      <point x="240" y="0" type="line"/>
      <point x="240" y="-40" type="line"/>
    </contour>
    <contour>
      <point x="240" y="80" type="line"/>
      <point x="240" y="120" type="line"/>
      <point x="200" y="120" type="line"/>
      <point x="200" y="80" type="line"/>
    </contour>
  </outline>
</glyph>
<glyph name="mo-kata" format="1">
  <advance width="320"/>
  <unicode hex="30E2"/>
  <note>
    b
  </note>
  <outline>
    <contour>
      <point x="120" y="0" type="line"/>
      <point x="120" y="80" type="line"/>
      <point x="280" y="80" type="line"/>
      <point x="280" y="120" type="line"/>
      <point x="120" y="120" type="line"/>
      <point x="120" y="200" type="line"/>
      <point x="240" y="200" type="line"/>
      <point x="240" y="240" type="line"/>
      <point x="0" y="240" type="line"/>
      <point x="0" y="200" type="line"/>
      <point x="80" y="200" type="line"/>
      <point x="80" y="120" type="line"/>
      <point x="0" y="120" type="line"/>
      <point x="0" y="80" type="line"/>
      <point x="80" y="80" type="line"/>
      <point x="80" y="0" type="line"/>
    </contour>
    <contour>
      <point x="280" y="-40" type="line"/>
      <point x="280" y="0" type="line"/>
      <point x="120" y="0" type="line"/>
      <point x="120" y="-40" type="line"/>
    </contour>
  </outline>
</glyph>
<glyph name="yusmall-kata" format="1">
  <advance width="320"/>
  <unicode hex="30E5"/>
  <note>
    o
  </note>
  <outline>
    <contour>
      <point x="200" y="-40" type="line"/>
      <point x="200" y="0" type="line"/>
      <point x="160" y="0" type="line"/>
      <point x="160" y="120" type="line"/>
      <point x="40" y="120" type="line"/>
      <point x="40" y="80" type="line"/>
      <point x="120" y="80" type="line"/>
      <point x="120" y="0" type="line"/>
      <point x="0" y="0" type="line"/>
      <point x="0" y="-40" type="line"/>
    </contour>
  </outline>
</glyph>
<glyph name="yu-kata" format="1">
  <advance width="320"/>
  <unicode hex="30E6"/>
  <note>
    d
  </note>
  <outline>
    <contour>
      <point x="280" y="-40" type="line"/>
      <point x="280" y="0" type="line"/>
      <point x="200" y="0" type="line"/>
      <point x="200" y="200" type="line"/>
      <point x="40" y="200" type="line"/>
      <point x="40" y="160" type="line"/>
      <point x="160" y="160" type="line"/>
      <point x="160" y="0" type="line"/>
      <point x="0" y="0" type="line"/>
      <point x="0" y="-40" type="line"/>
    </contour>
  </outline>
</glyph>
<glyph name="yosmall-kata" format="1">
  <advance width="320"/>
  <unicode hex="30E7"/>
  <note>
    p
  </note>
  <outline>
    <contour>
      <point x="160" y="-40" type="line"/>
      <point x="160" y="160" type="line"/>
      <point x="0" y="160" type="line"/>
      <point x="0" y="120" type="line"/>
      <point x="120" y="120" type="line"/>
      <point x="120" y="80" type="line"/>
      <point x="0" y="80" type="line"/>
      <point x="0" y="40" type="line"/>
      <point x="120" y="40" type="line"/>
      <point x="120" y="0" type="line"/>
      <point x="0" y="0" type="line"/>
      <point x="0" y="-40" type="line"/>
    </contour>
  </outline>
</glyph>
<glyph name="wa-kata" format="1">
  <advance width="320"/>
  <unicode hex="30EF"/>
  <note>
    j
  </note>
  <outline>
    <contour>
      <point x="280" y="40" type="line"/>
      <point x="280" y="240" type="line"/>
      <point x="0" y="240" type="line"/>
      <point x="0" y="80" type="line"/>
      <point x="40" y="80" type="line"/>
      <point x="40" y="200" type="line"/>
      <point x="240" y="200" type="line"/>
      <point x="240" y="40" type="line"/>
    </contour>
    <contour>
      <point x="200" y="-40" type="line"/>
      <point x="200" y="0" type="line"/>
      <point x="80" y="0" type="line"/>
      <point x="80" y="-40" type="line"/>
    </contour>
    <contour>
      <point x="240" y="0" type="line"/>
      <point x="240" y="40" type="line"/>
      <point x="200" y="40" type="line"/>
      <point x="200" y="0" type="line"/>
    </contour>
  </outline>
</glyph>
<glyph name="dot-kata" format="1">
  <advance width="320"/>
  <unicode hex="30FB"/>
  <note>
    p
  </note>
  <outline>
    <contour>
      <point x="200" y="80" type="line"/>
      <point x="200" y="160" type="line"/>
      <point x="120" y="160" type="line"/>
      <point x="120" y="80" type="line"/>
    </contour>
  </outline>
</glyph>
<glyph name="prolonged-kana" format="1">
  <advance width="320"/>
  <unicode hex="30FC"/>
  <note>
    l
  </note>
  <outline>
    <contour>
      <point x="240" y="120" type="line"/>
      <point x="240" y="160" type="line"/>
      <point x="0" y="160" type="line"/>
      <point x="0" y="120" type="line"/>
    </contour>
  </outline>
</glyph>
<glyph name="iteration-kata" format="1">
  <advance width="320"/>
  <unicode hex="30FD"/>
  <outline>
    <contour>
      <point x="120" y="72" type="line"/>
      <point x="120" y="112" type="line"/>
      <point x="80" y="112" type="line"/>
      <point x="80" y="72" type="line"/>
    </contour>
    <contour>
      <point x="160" y="32" type="line"/>
      <point x="160" y="72" type="line"/>
      <point x="120" y="72" type="line"/>
      <point x="120" y="32" type="line"/>
    </contour>
    <contour>
      <point x="40" y="152" type="line"/>
      <point x="40" y="192" type="line"/>
      <point x="0" y="192" type="line"/>
      <point x="0" y="152" type="line"/>
    </contour>
    <contour>
      <point x="80" y="112" type="line"/>
      <point x="80" y="152" type="line"/>
      <point x="40" y="152" type="line"/>
      <point x="40" y="112" type="line"/>
    </contour>
  </outline>
</glyph>
<glyph name="voicediteration-kata" format="1">
  <advance width="320"/>
  <unicode hex="30FE"/>
  <outline>
    <contour>
      <point x="184" y="240" type="line"/>
      <point x="184" y="280" type="line"/>
      <point x="144" y="280" type="line"/>
      <point x="144" y="240" type="line"/>
    </contour>
    <contour>
      <point x="40" y="152" type="line"/>
      <point x="40" y="192" type="line"/>
      <point x="0" y="192" type="line"/>
      <point x="0" y="152" type="line"/>
    </contour>
    <contour>
      <point x="80" y="112" type="line"/>
      <point x="80" y="152" type="line"/>
      <point x="40" y="152" type="line"/>
      <point x="40" y="112" type="line"/>
    </contour>
    <contour>
      <point x="120" y="72" type="line"/>
      <point x="120" y="112" type="line"/>
      <point x="80" y="112" type="line"/>
      <point x="80" y="72" type="line"/>
    </contour>
    <contour>
      <point x="160" y="32" type="line"/>
      <point x="160" y="72" type="line"/>
      <point x="120" y="72" type="line"/>
      <point x="120" y="32" type="line"/>
    </contour>
    <contour>
      <point x="104" y="200" type="line"/>
      <point x="104" y="240" type="line"/>
      <point x="64" y="240" type="line"/>
      <point x="64" y="200" type="line"/>
    </contour>
    <contour>
      <point x="144" y="160" type="line"/>
      <point x="144" y="200" type="line"/>
      <point x="104" y="200" type="line"/>
      <point x="104" y="160" type="line"/>
    </contour>
    <contour>
      <point x="224" y="200" type="line"/>
      <point x="224" y="240" type="line"/>
      <point x="184" y="240" type="line"/>
      <point x="184" y="200" type="line"/>
    </contour>
  </outline>
</glyph>
<glyph name="digraphkoto-kata" format="1">
  <advance width="320"/>
  <unicode hex="30FF"/>
  <outline>
    <contour>
      <point x="240" y="-40" type="line"/>
      <point x="240" y="240" type="line"/>
      <point x="0" y="240" type="line"/>
      <point x="0" y="200" type="line"/>
      <point x="200" y="200" type="line"/>
      <point x="200" y="-40" type="line"/>
    </contour>
  </outline>
</glyph>
<glyph name="ga-ko" format="1">
  <advance width="320"/>
  <unicode hex="AC00"/>
  <outline>
    <contour>
      <point x="80" y="80" type="line"/>
      <point x="80" y="120" type="line"/>
      <point x="120" y="120" type="line"/>
      <point x="120" y="160" type="line"/>
      <point x="160" y="160" type="line"/>
      <point x="160" y="280" type="line"/>
      <point x="0" y="280" type="line"/>
      <point x="0" y="240" type="line"/>
      <point x="120" y="240" type="line"/>
      <point x="120" y="160" type="line"/>
      <point x="80" y="160" type="line"/>
      <point x="80" y="120" type="line"/>
      <point x="0" y="120" type="line"/>
      <point x="0" y="80" type="line"/>
    </contour>
    <component base="aJung-ko" xOffset="200"/>
  </outline>
</glyph>
<glyph name="P_K_M_N.liga" format="1">
  <advance width="640"/>
  <note>
    g20
  </note>
  <outline>
    <contour>
      <point x="40" y="80" type="line"/>
      <point x="40" y="160" type="line"/>
      <point x="120" y="160" type="line"/>
      <point x="120" y="280" type="line"/>
      <point x="0" y="280" type="line"/>
      <point x="0" y="80" type="line"/>
    </contour>
    <contour>
      <point x="200" y="-40" type="line"/>
      <point x="200" y="40" type="line"/>
      <point x="240" y="40" type="line"/>
      <point x="240" y="80" type="line"/>
      <point x="200" y="80" type="line"/>
      <point x="200" y="160" type="line"/>
      <point x="160" y="160" type="line"/>
      <point x="160" y="-40" type="line"/>
    </contour>
    <contour>
      <point x="280" y="-40" type="line"/>
      <point x="280" y="40" type="line"/>
      <point x="240" y="40" type="line"/>
      <point x="240" y="-40" type="line"/>
    </contour>
    <contour>
      <point x="40" y="240" type="line"/>
      <point x="80" y="240" type="line"/>
      <point x="80" y="200" type="line"/>
      <point x="40" y="200" type="line"/>
    </contour>
    <contour>
      <point x="280" y="80" type="line"/>
      <point x="280" y="160" type="line"/>
      <point x="240" y="160" type="line"/>
      <point x="240" y="80" type="line"/>
    </contour>
    <contour>
      <point x="480" y="-40" type="line"/>
      <point x="480" y="40" type="line"/>
      <point x="520" y="40" type="line"/>
      <point x="520" y="80" type="line"/>
      <point x="480" y="80" type="line"/>
      <point x="480" y="120" type="line"/>
      <point x="440" y="120" type="line"/>
      <point x="440" y="-40" type="line"/>
    </contour>
    <contour>
      <point x="360" y="80" type="line"/>
      <point x="360" y="240" type="line"/>
      <point x="400" y="240" type="line"/>
      <point x="400" y="280" type="line"/>
      <point x="320" y="280" type="line"/>
      <point x="320" y="80" type="line"/>
    </contour>
    <contour>
      <point x="600" y="-40" type="line"/>
      <point x="600" y="120" type="line"/>
      <point x="560" y="120" type="line"/>
      <point x="560" y="40" type="line"/>
      <point x="520" y="40" type="line"/>
      <point x="520" y="0" type="line"/>
      <point x="560" y="0" type="line"/>
      <point x="560" y="-40" type="line"/>
    </contour>
    <contour>
      <point x="440" y="200" type="line"/>
      <point x="440" y="240" type="line"/>
      <point x="400" y="240" type="line"/>
      <point x="400" y="200" type="line"/>
    </contour>
    <contour>
      <point x="520" y="120" type="line"/>
      <point x="520" y="280" type="line"/>
      <point x="440" y="280" type="line"/>
      <point x="440" y="240" type="line"/>
      <point x="480" y="240" type="line"/>
      <point x="480" y="120" type="line"/>
    </contour>
  </outline>
</glyph>
<glyph name="quotesingle_s.liga" format="1">
  <advance width="320"/>
  <note>
    g14
  </note>
  <outline>
    <contour>
      <point x="280" y="0" type="line"/>
      <point x="280" y="40" type="line"/>
      <point x="80" y="40" type="line"/>
      <point x="80" y="0" type="line"/>
    </contour>
    <contour>
      <point x="40" y="160" type="line"/>
      <point x="40" y="200" type="line"/>
      <point x="0" y="200" type="line"/>
      <point x="0" y="160" type="line"/>
    </contour>
    <contour>
      <point x="120" y="120" type="line"/>
      <point x="120" y="160" type="line"/>
      <point x="80" y="160" type="line"/>
      <point x="80" y="120" type="line"/>
    </contour>
    <contour>
      <point x="80" y="200" type="line"/>
      <point x="80" y="280" type="line"/>
      <point x="0" y="280" type="line"/>
      <point x="0" y="240" type="line"/>
      <point x="40" y="240" type="line"/>
      <point x="40" y="200" type="line"/>
    </contour>
    <contour>
      <point x="280" y="80" type="line"/>
      <point x="280" y="120" type="line"/>
      <point x="120" y="120" type="line"/>
      <point x="120" y="80" type="line"/>
    </contour>
    <contour>
      <point x="320" y="40" type="line"/>
      <point x="320" y="80" type="line"/>
      <point x="280" y="80" type="line"/>
      <point x="280" y="40" type="line"/>
    </contour>
    <contour>
      <point x="280" y="160" type="line"/>
      <point x="280" y="200" type="line"/>
      <point x="120" y="200" type="line"/>
      <point x="120" y="160" type="line"/>
    </contour>
  </outline>
</glyph>
<glyph name="u_n_o_w_n_s.liga" format="1">
  <advance width="320"/>
  <note>
    s
  </note>
  <outline>
    <contour>
      <point x="200" y="200" type="line"/>
      <point x="200" y="240" type="line"/>
      <point x="40" y="240" type="line"/>
      <point x="40" y="200" type="line"/>
    </contour>
    <contour>
      <point x="240" y="-40" type="line"/>
      <point x="240" y="0" type="line"/>
      <point x="80" y="0" type="line"/>
      <point x="80" y="-40" type="line"/>
    </contour>
    <contour>
      <point x="80" y="80" type="line"/>
      <point x="80" y="120" type="line"/>
      <point x="40" y="120" type="line"/>
      <point x="40" y="80" type="line"/>
    </contour>
    <contour>
      <point x="40" y="120" type="line"/>
      <point x="40" y="200" type="line"/>
      <point x="0" y="200" type="line"/>
      <point x="0" y="120" type="line"/>
    </contour>
    <contour>
      <point x="200" y="40" type="line"/>
      <point x="200" y="80" type="line"/>
      <point x="80" y="80" type="line"/>
      <point x="80" y="40" type="line"/>
    </contour>
    <contour>
      <point x="200" y="120" type="line"/>
      <point x="200" y="160" type="line"/>
      <point x="80" y="160" type="line"/>
      <point x="80" y="120" type="line"/>
    </contour>
    <contour>
      <point x="280" y="0" type="line"/>
      <point x="280" y="80" type="line"/>
      <point x="240" y="80" type="line"/>
      <point x="240" y="0" type="line"/>
    </contour>
    <contour>
      <point x="240" y="80" type="line"/>
      <point x="240" y="120" type="line"/>
      <point x="200" y="120" type="line"/>
      <point x="200" y="80" type="line"/>
    </contour>
  </outline>
</glyph>
<glyph name="u_n_o_w_n_t.liga" format="1">
  <advance width="320"/>
  <note>
    t
  </note>
  <outline>
    <contour>
      <point x="160" y="160" type="line"/>
      <point x="160" y="200" type="line"/>
      <point x="120" y="200" type="line"/>
      <point x="120" y="240" type="line"/>
      <point x="200" y="240" type="line"/>
      <point x="200" y="280" type="line"/>
      <point x="0" y="280" type="line"/>
      <point x="0" y="240" type="line"/>
      <point x="80" y="240" type="line"/>
      <point x="80" y="200" type="line"/>
      <point x="40" y="200" type="line"/>
      <point x="40" y="160" type="line"/>
    </contour>
    <contour>
      <point x="40" y="40" type="line"/>
      <point x="40" y="160" type="line"/>
      <point x="0" y="160" type="line"/>
      <point x="0" y="40" type="line"/>
    </contour>
    <contour>
      <point x="160" y="0" type="line"/>
      <point x="160" y="40" type="line"/>
      <point x="40" y="40" type="line"/>
      <point x="40" y="0" type="line"/>
    </contour>
    <contour>
      <point x="120" y="80" type="line"/>
      <point x="120" y="120" type="line"/>
      <point x="80" y="120" type="line"/>
      <point x="80" y="80" type="line"/>
    </contour>
    <contour>
      <point x="200" y="40" type="line"/>
      <point x="200" y="160" type="line"/>
      <point x="160" y="160" type="line"/>
      <point x="160" y="40" type="line"/>
    </contour>
  </outline>
</glyph>
<glyph name="u_n_o_w_n_v.liga" format="1">
  <advance width="320"/>
  <note>
    v
  </note>
  <outline>
    <contour>
      <point x="160" y="120" type="line"/>
      <point x="160" y="160" type="line"/>
      <point x="80" y="160" type="line"/>
      <point x="80" y="200" type="line"/>
      <point x="160" y="200" type="line"/>
      <point x="160" y="160" type="line"/>
      <point x="200" y="160" type="line"/>
      <point x="200" y="280" type="line"/>
      <point x="160" y="280" type="line"/>
      <point x="160" y="240" type="line"/>
      <point x="40" y="240" type="line"/>
      <point x="40" y="280" type="line"/>
      <point x="0" y="280" type="line"/>
      <point x="0" y="200" type="line"/>
      <point x="40" y="200" type="line"/>
      <point x="40" y="120" type="line"/>
    </contour>
    <contour>
      <point x="40" y="40" type="line"/>
      <point x="40" y="120" type="line"/>
      <point x="0" y="120" type="line"/>
      <point x="0" y="40" type="line"/>
    </contour>
    <contour>
      <point x="160" y="0" type="line"/>
      <point x="160" y="40" type="line"/>
      <point x="40" y="40" type="line"/>
      <point x="40" y="0" type="line"/>
    </contour>
    <contour>
      <point x="200" y="40" type="line"/>
      <point x="200" y="120" type="line"/>
      <point x="160" y="120" type="line"/>
      <point x="160" y="40" type="line"/>
    </contour>
  </outline>
</glyph>
